<mxfile host="app.diagrams.net" modified="2022-11-21T18:56:31.611Z" agent="5.0 (Windows NT 10.0; Win64; x64) AppleWebKit/537.36 (KHTML, like Gecko) Chrome/105.0.0.0 Safari/537.36 OPR/91.0.4516.106 (Edition Yx GX)" etag="7Lv7MgE7j0hiCrdjIwO-" version="20.5.3" type="github">
  <diagram id="Sc26v9sCBHhI4rSS7ekX" name="Страница 1">
    <mxGraphModel dx="492" dy="660" grid="1" gridSize="10" guides="1" tooltips="1" connect="1" arrows="1" fold="1" page="1" pageScale="1" pageWidth="827" pageHeight="1169" math="0" shadow="0">
      <root>
        <mxCell id="0" />
        <mxCell id="1" parent="0" />
        <mxCell id="YzbSq2Wj_vHcoAZeYNY_-1" value="&lt;div&gt;Составить блок-схему нахождения суммы&amp;nbsp;&lt;/div&gt;&lt;div&gt;всех чётных чисел от 1 до 15.&lt;/div&gt;&lt;div&gt;&lt;br&gt;&lt;/div&gt;" style="text;html=1;align=center;verticalAlign=middle;resizable=0;points=[];autosize=1;strokeColor=none;fillColor=none;" vertex="1" parent="1">
          <mxGeometry x="290" y="30" width="260" height="60" as="geometry" />
        </mxCell>
        <mxCell id="YzbSq2Wj_vHcoAZeYNY_-4" value="" style="edgeStyle=orthogonalEdgeStyle;rounded=0;orthogonalLoop=1;jettySize=auto;html=1;" edge="1" parent="1" source="YzbSq2Wj_vHcoAZeYNY_-2" target="YzbSq2Wj_vHcoAZeYNY_-3">
          <mxGeometry relative="1" as="geometry" />
        </mxCell>
        <mxCell id="YzbSq2Wj_vHcoAZeYNY_-2" value="Start" style="ellipse;whiteSpace=wrap;html=1;" vertex="1" parent="1">
          <mxGeometry x="320" y="180" width="120" height="60" as="geometry" />
        </mxCell>
        <mxCell id="YzbSq2Wj_vHcoAZeYNY_-6" value="" style="edgeStyle=orthogonalEdgeStyle;rounded=0;orthogonalLoop=1;jettySize=auto;html=1;" edge="1" parent="1" source="YzbSq2Wj_vHcoAZeYNY_-3" target="YzbSq2Wj_vHcoAZeYNY_-5">
          <mxGeometry relative="1" as="geometry" />
        </mxCell>
        <mxCell id="YzbSq2Wj_vHcoAZeYNY_-3" value="Сумм (Cout)" style="shape=parallelogram;perimeter=parallelogramPerimeter;whiteSpace=wrap;html=1;fixedSize=1;" vertex="1" parent="1">
          <mxGeometry x="320" y="320" width="120" height="60" as="geometry" />
        </mxCell>
        <mxCell id="YzbSq2Wj_vHcoAZeYNY_-8" value="" style="edgeStyle=orthogonalEdgeStyle;rounded=0;orthogonalLoop=1;jettySize=auto;html=1;" edge="1" parent="1" source="YzbSq2Wj_vHcoAZeYNY_-5" target="YzbSq2Wj_vHcoAZeYNY_-7">
          <mxGeometry relative="1" as="geometry" />
        </mxCell>
        <mxCell id="YzbSq2Wj_vHcoAZeYNY_-5" value="Сумм = 0;&lt;br&gt;Cout = 2." style="whiteSpace=wrap;html=1;" vertex="1" parent="1">
          <mxGeometry x="320" y="460" width="120" height="60" as="geometry" />
        </mxCell>
        <mxCell id="YzbSq2Wj_vHcoAZeYNY_-10" value="" style="edgeStyle=orthogonalEdgeStyle;rounded=0;orthogonalLoop=1;jettySize=auto;html=1;" edge="1" parent="1" source="YzbSq2Wj_vHcoAZeYNY_-7" target="YzbSq2Wj_vHcoAZeYNY_-9">
          <mxGeometry relative="1" as="geometry" />
        </mxCell>
        <mxCell id="YzbSq2Wj_vHcoAZeYNY_-13" value="" style="edgeStyle=orthogonalEdgeStyle;rounded=0;orthogonalLoop=1;jettySize=auto;html=1;" edge="1" parent="1" source="YzbSq2Wj_vHcoAZeYNY_-7">
          <mxGeometry relative="1" as="geometry">
            <mxPoint x="479.9999999999999" y="630" as="targetPoint" />
          </mxGeometry>
        </mxCell>
        <mxCell id="YzbSq2Wj_vHcoAZeYNY_-7" value="Count&amp;gt;15" style="rhombus;whiteSpace=wrap;html=1;" vertex="1" parent="1">
          <mxGeometry x="340" y="590" width="80" height="80" as="geometry" />
        </mxCell>
        <mxCell id="YzbSq2Wj_vHcoAZeYNY_-19" style="edgeStyle=orthogonalEdgeStyle;rounded=0;orthogonalLoop=1;jettySize=auto;html=1;entryX=0.5;entryY=0;entryDx=0;entryDy=0;" edge="1" parent="1" source="YzbSq2Wj_vHcoAZeYNY_-9" target="YzbSq2Wj_vHcoAZeYNY_-7">
          <mxGeometry relative="1" as="geometry">
            <Array as="points">
              <mxPoint x="220" y="570" />
              <mxPoint x="380" y="570" />
            </Array>
          </mxGeometry>
        </mxCell>
        <mxCell id="YzbSq2Wj_vHcoAZeYNY_-9" value="Cумм=Сумм+Count;&lt;br&gt;Count=Count+2." style="whiteSpace=wrap;html=1;" vertex="1" parent="1">
          <mxGeometry x="160" y="600" width="120" height="60" as="geometry" />
        </mxCell>
        <mxCell id="YzbSq2Wj_vHcoAZeYNY_-11" value="no" style="text;html=1;align=center;verticalAlign=middle;resizable=0;points=[];autosize=1;strokeColor=none;fillColor=none;" vertex="1" parent="1">
          <mxGeometry x="300" y="605" width="40" height="30" as="geometry" />
        </mxCell>
        <mxCell id="YzbSq2Wj_vHcoAZeYNY_-21" value="" style="edgeStyle=orthogonalEdgeStyle;rounded=0;orthogonalLoop=1;jettySize=auto;html=1;" edge="1" parent="1" source="YzbSq2Wj_vHcoAZeYNY_-16" target="YzbSq2Wj_vHcoAZeYNY_-20">
          <mxGeometry relative="1" as="geometry" />
        </mxCell>
        <mxCell id="YzbSq2Wj_vHcoAZeYNY_-16" value="Print = Сумм" style="shape=document;whiteSpace=wrap;html=1;boundedLbl=1;" vertex="1" parent="1">
          <mxGeometry x="480" y="600" width="120" height="80" as="geometry" />
        </mxCell>
        <mxCell id="YzbSq2Wj_vHcoAZeYNY_-20" value="Stop" style="ellipse;whiteSpace=wrap;html=1;" vertex="1" parent="1">
          <mxGeometry x="480" y="770" width="120" height="60" as="geometry" />
        </mxCell>
        <mxCell id="YzbSq2Wj_vHcoAZeYNY_-22" value="yes" style="text;html=1;align=center;verticalAlign=middle;resizable=0;points=[];autosize=1;strokeColor=none;fillColor=none;" vertex="1" parent="1">
          <mxGeometry x="430" y="605" width="40" height="30" as="geometry" />
        </mxCell>
      </root>
    </mxGraphModel>
  </diagram>
</mxfile>
